<?xml version="1.0" encoding="utf-8"?>
<!-- Generator: Adobe Illustrator 21.0.0, SVG Export Plug-In . SVG Version: 6.00 Build 0)  -->
<svg version="1.1" id="Layer_1" xmlns="http://www.w3.org/2000/svg" xmlns:xlink="http://www.w3.org/1999/xlink" x="0px" y="0px"
	 viewBox="0 0 160 65" style="enable-background:new 0 0 160 65;" xml:space="preserve">
<g>
	<path d="M158.1,46.7c-1.2,0.1-2.5,0.2-3.8,0.3c0.1-9.4-6.7-10.6-14.3-8.3c-1.3,0.4-5-0.3,4.5-3.7c4.8-1.7,7.8-2.7,1.4-8.3
		c-2.1-1.8-21.7,7.1-16.7,16.1c5.7,10.3,22-6.5,21.6,4.6c-11.8,1.1-23.7,2.9-23.4,9.1c0.6,13.6,24.4,10.8,26.8-6.6c0,0,0,0,0-0.1
		c1.2-0.1,2.5-0.2,3.8-0.4C160.6,49.2,160.4,46.5,158.1,46.7z M134.3,55.5c-0.9-2.9,7-4.3,16.2-5.4C147.8,62.3,136,61.1,134.3,55.5z
		"/>
	<path d="M117.8,33.2c-0.8,5.7-0.8,11.7-0.1,11.7c0.3,0,2.3-0.3,2.9-1.5c1.8-3.4,3.3-10.6,6.3-12.1
		C129.7,29.9,118.8,26.3,117.8,33.2z"/>
	<path d="M42.1,21c-1.6-3.3-4-2.5-5.7-1.7c-3.4,1.6-4,4.6-2.6,6.2C37.2,29.2,44.5,25.9,42.1,21z"/>
	<path d="M50.9,17c-3.7,1.8-4.4,5-2.9,6.7c3.7,4,11.6,0.4,9-4.9C55.3,15.3,52.8,16.1,50.9,17z"/>
	<path d="M27.3,59c-1.8,1.3-1.6-1,0.4-17.5c1.2-9.3-5-11.5-12.4-6.8c-2.7,1.7-5.1,5.5-6.8,10.2c0.2-2.5,0.7-5.2,1.4-7.9
		c1.7-6.6,0.4-10.2-7.6-8C1.2,29.2,0,35.3,0,44.1c0,10.7,0.8,18.7,1.9,19.4c3.1,2.3,8.3,0.6,8-1c-0.4-1.5-0.7-3.1-1-4.8
		c0.1-6.7,1.8-13.7,4.7-16.4c2.2-2.1,4.6-1.5,3.1,9.4c-2,15,4.3,16.2,12.2,10.8C30.9,60.3,29.5,57.5,27.3,59z"/>
	<path d="M53.2,58c-4.5,5.1-9.1,2.8-11-2.4c0.2-0.1,0.3-0.1,0.5-0.2c9.4-3.8,15.3-14,11.6-19.8c-5.1-8-21.2-0.8-23.2,10.3
		c-1.8,10.3,3,17.3,10.7,18.1c5.4,0.6,11-1.1,13.2-4.6C56.8,56.7,55.3,55.7,53.2,58z M41.4,52.2c-0.2-1.3-0.2-2.7-0.1-4.2
		c1.2-10.2,4.5-14.4,6.2-11.7C49.2,38.9,47.2,48,41.4,52.2z"/>
	<path d="M76.1,32c-3.3,1.6-7.4,7.8-9.8,14.5c0.6-3.6,1.7-7,2.8-10.4c2-6-1.7-9-8.1-7.2c-1.1,0.3-3,8.1-3,16.9
		c0,10.7,0.6,16.9,1.6,17.7c3.1,2.4,8.5,0.6,8-1c-0.2-0.6-0.4-1.2-0.6-1.9c0-0.2,0-0.3-0.1-0.5c-1.1-7,3-16.6,6.4-19.2
		c0.9-0.7,2.1-0.2,2.3,1.7c-2.7,1.3-3.6,3.7-3.6,4.7c0,2.8,2.8,3.4,5.2,2.7c2.1-0.7,4.4-2.6,6-5.1c0.4-0.7,0.8-1.3,1.3-3
		c-0.2,0.6,0.3-1.2,0.4-1.7c0-0.1,0.1-0.3,0.1-0.4C86.2,33,81.9,29.1,76.1,32z"/>
	<path d="M118.8,58.7c-2.6,2.9-5.4,0.1-6.1-2c-1.2-4-1.7-12.9-0.6-23c0.3-2.7,0.7-5.2,1.1-7.5c19.6-8.1,20.5-22.4,11.5-25.6
		c-8.1-2.9-18.1,6-21.4,24.3c-1.6,0.2-3.2,0.3-5,0.3c-10.5,0-8.9-13.5-5.2-15.9c2.1-1.3,1.3-5.2-5.3,0.6
		c-5.9,5.1-14.1,24.7,9.9,20.7c1.7-0.3,3.4-0.6,5-1c-0.1,0.3-0.1,0.6-0.1,0.8c-0.1,1.4-0.2,2.8-0.3,4.1c-5.4-2.9-14.8,1.1-16.7,11.9
		c-1.8,10.2,2.1,17.4,8.7,18.2c3.3,0.3,5.9-0.9,8-3.1c0.6-0.6,1.1-1.4,1.6-2.3c1.1,3.1,3,5.1,6.1,5.5c4.3,0.5,8.7-1.1,11-3.4
		C124.8,57.4,121.6,55.5,118.8,58.7z M126.4,7.4c1.2,1.9-2.6,9.8-12.1,14.3C118.1,8,124.6,4.7,126.4,7.4z M99.6,59
		c-2.1,2-5.9-2.4-4.9-10.8c0.8-7.1,4.1-12.3,7.5-10.8c0,0.5-0.1,1-0.1,1.5c-0.1,4.1-0.1,8.1,0.2,11.6C102.1,52.2,101.2,57.4,99.6,59
		z"/>
</g>
</svg>
